<svg width="40" height="40" viewBox="0 0 40 40" fill="none" xmlns="http://www.w3.org/2000/svg">
<path d="M29.6181 0H10.3806C4.36516 0 0 4.36645 0 10.3819V29.6181C0 35.6335 4.36516 40 10.3806 40H29.6181C35.6335 40 40 35.6335 40 29.6181V10.3819C40 4.36645 35.6335 0 29.6181 0ZM37.4194 29.6181C37.4194 34.2116 34.2116 37.4194 29.6181 37.4194H10.3806C5.78839 37.4194 2.58065 34.2116 2.58065 29.6181V10.3819C2.58065 5.78839 5.78839 2.58065 10.3806 2.58065H29.6181C34.2116 2.58065 37.4194 5.78839 37.4194 10.3819V29.6181Z" fill="#2D2D2D"/>
<path d="M18.9238 21.2831C18.4077 20.6044 17.6684 20.1244 16.7096 19.8431C17.4542 19.4741 18.009 18.9902 18.3767 18.3915C18.7445 17.7928 18.929 17.154 18.929 16.4753C18.929 15.7463 18.7213 15.0482 18.3071 14.3799C17.8929 13.7115 17.3174 13.2173 16.5858 12.896C15.8542 12.5747 14.8787 12.4121 13.6658 12.4121H7.71094V28.2883H13.7638C14.7755 28.2883 15.6284 28.2005 16.3251 28.0237C17.0219 27.8457 17.6013 27.585 18.0632 27.2379C18.5251 26.8921 18.9135 26.3992 19.2271 25.7605C19.5406 25.1205 19.698 24.4302 19.698 23.687C19.698 22.7618 19.44 21.9618 18.9238 21.2831ZM9.81158 19.0831V14.2869H12.9845C14.1251 14.2869 14.9303 14.3605 15.4 14.5076C15.8696 14.656 16.2296 14.9295 16.4825 15.3308C16.7355 15.7334 16.8619 16.1966 16.8619 16.7231C16.8619 17.2792 16.7264 17.7411 16.4555 18.1089C16.1845 18.4766 15.7819 18.7411 15.2477 18.8999C14.8438 19.0224 14.1755 19.0844 13.2451 19.0844H9.81158V19.0831V19.0831ZM17.209 25.0237C16.9987 25.4108 16.7316 25.7037 16.4077 25.9076C16.0825 26.1089 15.6787 26.2534 15.1948 26.3399C14.9213 26.3902 14.4438 26.4173 13.7651 26.4173H9.81158V26.416V20.9579H13.4825C14.4942 20.9579 15.2671 21.0457 15.8051 21.2237C16.3432 21.3992 16.7638 21.7076 17.0671 22.1437C17.3703 22.5799 17.5225 23.0947 17.5225 23.687C17.5225 24.1928 17.418 24.6366 17.209 25.0237Z" fill="#2D2D2D"/>
<path d="M32.2907 22.5196C32.2907 20.6202 31.803 19.148 30.8288 18.1002C29.8533 17.0499 28.5978 16.5273 27.0598 16.5273C25.4714 16.5273 24.1811 17.0615 23.1836 18.1299C22.1875 19.1996 21.6895 20.7002 21.6895 22.6357C21.6895 24.5054 22.1824 25.9583 23.1669 26.9957C24.154 28.0306 25.4869 28.548 27.1707 28.548C28.5049 28.548 29.6017 28.2228 30.4624 27.5738C31.3217 26.9235 31.9088 26.0099 32.2262 24.8331L30.212 24.5867C29.9166 25.4086 29.5166 26.0086 29.0082 26.3841C28.5036 26.7596 27.8946 26.9467 27.1798 26.9467C26.2198 26.9467 25.4185 26.6112 24.7746 25.9402C24.1333 25.268 23.7772 24.3002 23.7036 23.0383H32.2804C32.2882 22.8073 32.2907 22.6344 32.2907 22.5196ZM23.812 21.4331V21.4319C23.8753 20.428 24.2146 19.628 24.8224 19.028C25.434 18.4293 26.1875 18.1286 27.0804 18.1286C28.0701 18.1286 28.8753 18.5054 29.4959 19.2564C29.8985 19.7402 30.1449 20.4654 30.2327 21.4331H23.812Z" fill="#2D2D2D"/>
<path d="M30.2491 13.832H23.7355L23.7188 15.4346H30.2607L30.2491 13.832Z" fill="#2D2D2D"/>
</svg>
