<svg width="608" height="484" viewBox="0 0 608 484" fill="none" xmlns="http://www.w3.org/2000/svg">
<path d="M336.182 190.227C405.293 232.129 463.031 277.995 500.514 318.268C519.257 338.407 532.915 357.125 540.405 373.231C547.905 389.357 549.166 402.736 543.357 412.318C537.548 421.899 525.102 426.968 507.336 427.776C489.592 428.582 466.679 425.128 440.155 417.822C387.114 403.211 319.747 373.227 250.635 331.326C181.524 289.424 123.786 243.557 86.3034 203.285C67.5598 183.146 53.9017 164.428 46.4115 148.322C38.9121 132.196 37.6511 118.817 43.4602 109.235C49.2692 99.6541 61.7153 94.5851 79.4813 93.7774C97.2254 92.9707 120.138 96.4249 146.662 103.731C199.703 118.342 267.07 148.325 336.182 190.227Z" stroke="#2D2D2D"/>
<path d="M362.011 149.092C429.693 190.127 486.138 235.21 522.684 274.914C540.959 294.768 554.238 313.256 561.467 329.202C568.704 345.166 569.826 358.461 564.014 368.047C558.203 377.632 545.896 382.786 528.395 383.752C510.913 384.716 488.38 381.491 462.324 374.469C410.221 360.425 344.147 331.226 276.464 290.191C208.781 249.155 152.337 204.073 115.791 164.369C97.5152 144.514 84.2359 126.026 77.0072 110.08C69.7703 94.1159 68.6486 80.8209 74.4602 71.2354C80.2717 61.6499 92.5785 56.4965 110.08 55.5308C127.561 54.5662 150.095 57.791 176.15 64.8136C228.254 78.857 294.328 108.056 362.011 149.092Z" stroke="#2D2D2D"/>
</svg>
