<svg width="10" height="10" viewBox="0 0 10 10" fill="none" xmlns="http://www.w3.org/2000/svg">
<path d="M4.86657 0.118531C4.88534 -0.0395103 5.11466 -0.0395103 5.13343 0.118531L5.29075 1.44435C5.49388 3.15634 6.84366 4.50612 8.55563 4.70925L9.88145 4.86657C10.0395 4.88534 10.0395 5.11466 9.88145 5.13343L8.55563 5.29075C6.84366 5.49388 5.49388 6.84366 5.29075 8.55563L5.13343 9.88145C5.11466 10.0395 4.88534 10.0395 4.86657 9.88145L4.70925 8.55563C4.50612 6.84366 3.15634 5.49388 1.44435 5.29075L0.118531 5.13343C-0.0395103 5.11466 -0.0395103 4.88534 0.118531 4.86657L1.44435 4.70925C3.15634 4.50612 4.50612 3.15634 4.70925 1.44435L4.86657 0.118531Z" fill="#2D2D2D"/>
</svg>
